<svg width="256" height="256" viewBox="0 0 256 256" fill="none" xmlns="http://www.w3.org/2000/svg">
<path d="M241.067 256C211.437 256 182.163 249.541 153.244 236.622C124.326 223.704 98.0148 205.393 74.3111 181.689C50.6074 157.985 32.2963 131.674 19.3778 102.756C6.45926 73.837 0 44.563 0 14.9333C0 10.6667 1.42222 7.11111 4.26667 4.26667C7.11111 1.42222 10.6667 0 14.9333 0H72.5333C75.8519 0 78.8148 1.12593 81.4222 3.37778C84.0296 5.62963 85.5704 8.2963 86.0444 11.3778L95.2889 61.1556C95.763 64.9481 95.6444 68.1481 94.9333 70.7556C94.2222 73.363 92.9185 75.6148 91.0222 77.5111L56.5333 112.356C61.2741 121.126 66.9037 129.6 73.4222 137.778C79.9407 145.956 87.1111 153.837 94.9333 161.422C102.281 168.77 109.985 175.585 118.044 181.867C126.104 188.148 134.637 193.896 143.644 199.111L177.067 165.689C179.2 163.556 181.985 161.956 185.422 160.889C188.859 159.822 192.237 159.526 195.556 160L244.622 169.956C247.941 170.904 250.667 172.622 252.8 175.111C254.933 177.6 256 180.385 256 183.467V241.067C256 245.333 254.578 248.889 251.733 251.733C248.889 254.578 245.333 256 241.067 256Z" fill="white"/>
</svg>
