<svg width="35" height="35" viewBox="0 0 35 35" fill="none" xmlns="http://www.w3.org/2000/svg">
<path d="M13.2723 34.4852V22.8477H9.66438V17.5H13.2723V15.1958C13.2723 9.23854 15.9673 6.47792 21.8152 6.47792C22.4 6.47792 23.2079 6.53917 23.956 6.62813C24.5164 6.68579 25.0723 6.78079 25.62 6.9125V11.7615C25.3033 11.7319 24.9857 11.7144 24.6677 11.709C24.3115 11.6997 23.9551 11.6953 23.5987 11.6958C22.5677 11.6958 21.7627 11.8358 21.156 12.1465C20.7482 12.3511 20.4053 12.6652 20.1658 13.0535C19.7896 13.666 19.6204 14.5046 19.6204 15.6085V17.5H25.3356L24.7727 20.5669L24.3542 22.8477H19.6204V34.8717C28.2858 33.8246 35 26.4469 35 17.5C35 7.83563 27.1644 0 17.5 0C7.83563 0 0 7.83563 0 17.5C0 25.7075 5.64958 32.5938 13.2723 34.4852Z" fill="#0866FF"/>
</svg>
