<svg width="35" height="35" viewBox="0 0 35 35" fill="none" xmlns="http://www.w3.org/2000/svg">
<path d="M10.2522 0.122525C8.39021 0.210316 7.11869 0.507525 6.007 0.944151C4.85667 1.39259 3.88148 1.99415 2.91125 2.96788C1.94116 3.94161 1.34354 4.91739 0.898454 6.06976C0.467661 7.18364 0.175703 8.45633 0.0934525 10.3194C0.0112023 12.1824 -0.00702686 12.7813 0.00216065 17.5337C0.0112023 22.2859 0.0322024 22.8816 0.122473 24.7486C0.211432 26.6101 0.507474 27.8814 0.944245 28.9933C1.39341 30.1438 1.99425 31.1186 2.96842 32.0891C3.94244 33.0596 4.91748 33.6558 6.07248 34.1016C7.18548 34.5318 8.45846 34.8251 10.3212 34.9066C12.1839 34.9883 12.7835 35.0072 17.5344 34.998C22.2854 34.989 22.8836 34.9678 24.75 34.8793C26.6166 34.7908 27.881 34.4926 28.9934 34.0578C30.1439 33.6078 31.1194 33.0078 32.0892 32.0335C33.059 31.0591 33.6562 30.0826 34.101 28.9296C34.5322 27.8166 34.8252 26.5438 34.906 24.6824C34.9876 22.8144 35.0069 22.2181 34.9978 17.4665C34.9887 12.7148 34.9672 12.1191 34.8787 10.2529C34.7902 8.38662 34.4937 7.11933 34.0572 6.00662C33.6075 4.85614 33.0072 3.88211 32.0336 2.91086C31.0599 1.93961 30.0825 1.34286 28.9301 0.899088C27.8163 0.46815 26.5442 0.174587 24.6814 0.0940871C22.8187 0.013587 22.2192 -0.00726719 17.4665 0.00206615C12.7137 0.0111078 12.1187 0.0315245 10.2522 0.122525ZM10.4567 31.7583C8.75042 31.6841 7.82394 31.4006 7.20648 31.1633C6.38894 30.8483 5.80648 30.4676 5.19121 29.8581C4.57579 29.2488 4.19794 28.6643 3.87871 27.8485C3.63896 27.2311 3.35021 26.3056 3.27044 24.5994C3.18367 22.7553 3.16544 22.2016 3.15523 17.5294C3.14502 12.8573 3.16296 12.3041 3.24375 10.4594C3.31667 8.75456 3.60192 7.82706 3.83875 7.20989C4.15375 6.39133 4.53321 5.80989 5.14396 5.19505C5.75471 4.58007 6.33746 4.20134 7.15398 3.88211C7.77086 3.64134 8.69617 3.35507 10.4017 3.27384C12.2472 3.18634 12.8002 3.16884 17.4717 3.15863C22.1432 3.14842 22.6977 3.16593 24.5439 3.2473C26.2487 3.32138 27.1766 3.60386 27.7931 3.8423C28.6109 4.1573 29.1931 4.53559 29.8079 5.14751C30.4229 5.75914 30.8019 6.33985 31.1211 7.15812C31.3622 7.7731 31.6486 8.69812 31.7291 10.4048C31.8169 12.2503 31.8369 12.8038 31.8452 17.4748C31.8537 22.1459 31.8372 22.7006 31.7562 24.5448C31.6819 26.2511 31.399 27.1779 31.1612 27.796C30.8462 28.6133 30.4666 29.196 29.8555 29.8106C29.2444 30.4253 28.6624 30.8039 27.8454 31.1231C27.2294 31.3636 26.3029 31.6506 24.5989 31.7318C22.7532 31.8186 22.2002 31.8368 17.527 31.847C12.8537 31.8572 12.3022 31.8383 10.4567 31.7583ZM24.7231 8.14687C24.7238 8.56225 24.8477 8.96809 25.0791 9.31307C25.3104 9.65804 25.6389 9.92666 26.0229 10.0849C26.407 10.2432 26.8293 10.284 27.2366 10.2023C27.6438 10.1205 28.0177 9.91977 28.3108 9.6255C28.604 9.33124 28.8033 8.95664 28.8836 8.54909C28.9638 8.14153 28.9214 7.71934 28.7617 7.33589C28.602 6.95245 28.3321 6.62498 27.9863 6.39491C27.6404 6.16484 27.2341 6.0425 26.8188 6.04337C26.262 6.04453 25.7284 6.26677 25.3354 6.66123C24.9424 7.05569 24.7222 7.59007 24.7231 8.14687ZM8.51446 17.5176C8.52424 22.4806 12.5549 26.4946 17.5168 26.4853C22.4789 26.4758 26.4957 22.4456 26.4864 17.4826C26.4769 12.5195 22.4454 8.50431 17.4826 8.51408C12.5199 8.52385 8.50513 12.5551 8.51446 17.5176ZM11.6667 17.5113C11.6644 16.3576 12.0043 15.2291 12.6433 14.2685C13.2824 13.308 14.192 12.5585 15.257 12.1149C16.322 11.6713 17.4947 11.5534 18.6267 11.7763C19.7587 11.9991 20.7992 12.5526 21.6166 13.3668C22.434 14.181 22.9916 15.2193 23.219 16.3504C23.4463 17.4815 23.3331 18.6546 22.8937 19.7213C22.4544 20.7881 21.7085 21.7006 20.7505 22.3435C19.7925 22.9864 18.6654 23.3308 17.5117 23.3331C16.7456 23.3347 15.9867 23.1854 15.2783 22.8937C14.57 22.602 13.926 22.1736 13.3832 21.6329C12.8405 21.0923 12.4095 20.4501 12.115 19.7429C11.8204 19.0357 11.6681 18.2774 11.6667 17.5113Z" fill="#E4405F"/>
</svg>
