<svg width="212" height="257" viewBox="0 0 212 257" fill="none" xmlns="http://www.w3.org/2000/svg">
<path d="M106 256.056C102.908 256.056 99.8167 255.504 96.725 254.4C93.6333 253.296 90.8729 251.64 88.4438 249.431C74.0896 236.181 61.3917 223.262 50.35 210.675C39.3083 198.087 30.0885 185.886 22.6906 174.072C15.2927 162.257 9.66146 150.884 5.79688 139.953C1.93229 129.022 0 118.587 0 108.65C0 75.525 10.6552 49.1354 31.9656 29.4812C53.276 9.82708 77.9542 0 106 0C134.046 0 158.724 9.82708 180.034 29.4812C201.345 49.1354 212 75.525 212 108.65C212 118.587 210.068 129.022 206.203 139.953C202.339 150.884 196.707 162.257 189.309 174.072C181.911 185.886 172.692 198.087 161.65 210.675C150.608 223.262 137.91 236.181 123.556 249.431C121.127 251.64 118.367 253.296 115.275 254.4C112.183 255.504 109.092 256.056 106 256.056ZM106 132.5C113.288 132.5 119.526 129.905 124.716 124.716C129.905 119.526 132.5 113.287 132.5 106C132.5 98.7125 129.905 92.474 124.716 87.2844C119.526 82.0948 113.288 79.5 106 79.5C98.7125 79.5 92.474 82.0948 87.2844 87.2844C82.0948 92.474 79.5 98.7125 79.5 106C79.5 113.287 82.0948 119.526 87.2844 124.716C92.474 129.905 98.7125 132.5 106 132.5Z" fill="white"/>
</svg>
