<svg width="100" height="59" viewBox="0 0 100 59" fill="none" xmlns="http://www.w3.org/2000/svg">
<path d="M26.2367 37.1635L18.7279 37.2962L35.1148 49.0646C35.1148 49.0646 44.6555 56.0549 45.6272 56.6301L45.6568 56.6476C46.6278 57.2224 48.0457 58.0618 49.735 58.1343C51.6698 58.2174 53.2685 57.2937 54.4611 56.6301C55.6537 55.9664 66.0777 48.2683 66.0777 48.2683L81.2279 37.2077H73.7632L62.3675 45.6137C62.3675 45.6137 52.341 52.8252 51.6343 53.1349C50.9276 53.4446 50.4952 53.6212 49.735 53.5774C49.1247 53.5421 49.1608 53.5331 48.2332 53.1349C47.3056 52.7367 45.6272 51.3652 45.6272 51.3652L26.2367 37.1635Z" fill="url(#paint0_linear_15_228)"/>
<path d="M6.51855 18.2871H9.54735L7.90035 25.9904H10.7337L10.4965 27.1648H4.63427L6.51855 18.2871Z" fill="url(#paint1_linear_15_228)"/>
<path d="M16.4921 21.1531H19.3395L18.0554 27.1648H15.7942L15.543 26.27H15.4593C15.2173 26.5589 14.887 26.8013 14.4683 26.997C14.0588 27.1834 13.6448 27.2766 13.226 27.2766C12.6677 27.2766 12.2304 27.1368 11.914 26.8572C11.5977 26.5683 11.4395 26.1954 11.4395 25.7387C11.4395 25.5057 11.4767 25.2168 11.5511 24.8719C11.6349 24.5178 11.7093 24.1869 11.7745 23.8793L12.3607 21.1531H15.1941L14.4962 24.4246C14.4776 24.4991 14.459 24.5877 14.4404 24.6902C14.4217 24.7927 14.4031 24.8952 14.3845 24.9978C14.3659 25.091 14.3473 25.1842 14.3287 25.2774C14.3194 25.3613 14.3147 25.4312 14.3147 25.4871C14.3147 25.6269 14.3427 25.7481 14.3985 25.8506C14.4636 25.9438 14.5753 25.9904 14.7335 25.9904C14.901 25.9904 15.0591 25.9345 15.208 25.8226C15.3569 25.7108 15.4732 25.6036 15.557 25.5011L16.4921 21.1531Z" fill="url(#paint2_linear_15_228)"/>
<path d="M25.6478 26.8292C25.2569 26.9877 24.8429 27.0995 24.4055 27.1648C23.9775 27.2393 23.489 27.2766 22.94 27.2766C22.4561 27.2766 22.0095 27.23 21.6001 27.1368C21.1999 27.0343 20.851 26.8758 20.5532 26.6615C20.2555 26.4471 20.0228 26.1721 19.8554 25.8366C19.6879 25.4917 19.6041 25.077 19.6041 24.5923C19.6041 24.089 19.6879 23.623 19.8554 23.1943C20.0322 22.7562 20.2927 22.3741 20.637 22.0479C20.9906 21.7217 21.4372 21.4654 21.9769 21.2789C22.5166 21.0925 23.1587 20.9993 23.9031 20.9993C24.5079 20.9993 25.0336 21.0506 25.4803 21.1531C25.9269 21.2463 26.2945 21.4653 26.5829 21.8102L26.1921 23.5997H24.2939C24.3032 23.4413 24.3125 23.3015 24.3218 23.1803C24.3311 23.0591 24.3357 22.924 24.3357 22.7749C24.3357 22.4766 24.3032 22.2669 24.238 22.1457C24.1729 22.0153 24.0659 21.95 23.917 21.95C23.6565 21.95 23.4285 22.0805 23.2331 22.3415C23.0377 22.5931 22.8748 22.9007 22.7446 23.2642C22.6236 23.6184 22.5306 23.9958 22.4654 24.3966C22.4096 24.7881 22.3817 25.1236 22.3817 25.4032C22.3817 25.5057 22.3863 25.6129 22.3956 25.7248C22.4049 25.8273 22.4236 25.9251 22.4515 26.0184C22.4887 26.1116 22.5352 26.1861 22.591 26.242C22.6469 26.298 22.726 26.3259 22.8283 26.3259C22.9214 26.3259 23.0284 26.298 23.1493 26.242C23.2703 26.1861 23.3866 26.1022 23.4983 25.9904C23.61 25.8692 23.717 25.7154 23.8193 25.529C23.9217 25.3426 24.0008 25.1189 24.0566 24.858H26.0525L25.6478 26.8292Z" fill="url(#paint3_linear_15_228)"/>
<path d="M30.1768 23.6976L33.4289 21.1531H35.2713L32.4937 23.4319L34.5734 27.1648H31.4469L30.0232 24.3547L29.437 27.1648H26.5897L28.5717 17.7698H31.433L30.1768 23.6976Z" fill="url(#paint4_linear_15_228)"/>
<path d="M38.8254 22.0479C39.0208 21.8615 39.2394 21.689 39.4814 21.5306C39.6954 21.4001 39.9466 21.2789 40.2351 21.1671C40.5235 21.0553 40.8446 20.9993 41.1982 20.9993C41.682 20.9993 42.0821 21.1252 42.3985 21.3768C42.7149 21.6191 42.8731 21.9547 42.8731 22.3834C42.8731 22.5046 42.8591 22.6537 42.8312 22.8308C42.8033 22.9986 42.7707 23.1756 42.7335 23.362C42.6963 23.5485 42.6544 23.7395 42.6079 23.9352C42.5707 24.1217 42.5381 24.2894 42.5102 24.4385L41.924 27.1648H39.0906L39.8582 23.5158C39.8768 23.3947 39.9001 23.2735 39.928 23.1523C39.9559 23.0219 39.9699 22.9053 39.9699 22.8028C39.9699 22.663 39.9327 22.5512 39.8582 22.4673C39.7931 22.3741 39.6907 22.3275 39.5512 22.3275C39.3837 22.3275 39.2208 22.3881 39.0626 22.5092C38.9138 22.6304 38.7975 22.7329 38.7137 22.8168L37.7925 27.1648H34.9452L36.2153 21.1531H38.4904L38.7416 22.0479H38.8254Z" fill="url(#paint5_linear_15_228)"/>
<path d="M47.6596 20.9993C48.767 20.9993 49.5718 21.1951 50.0743 21.5865C50.6047 21.9966 50.8699 22.677 50.8699 23.6277C50.8699 24.2149 50.7722 24.7461 50.5768 25.2215C50.3814 25.6875 50.1069 26.0743 49.7533 26.3818C49.0461 26.9783 48.0225 27.2766 46.6826 27.2766C45.5381 27.2766 44.7192 27.0576 44.2261 26.6195C43.6957 26.1628 43.4305 25.4778 43.4305 24.5644C43.4305 23.9585 43.5515 23.4086 43.7934 22.9147C44.0446 22.4207 44.4029 22.0106 44.8681 21.6844C45.5474 21.2277 46.4779 20.9993 47.6596 20.9993ZM46.7105 26.3259C46.9432 26.3259 47.1432 26.1954 47.3107 25.9345C47.4875 25.6735 47.6271 25.3566 47.7294 24.9838C47.8318 24.6017 47.9062 24.2102 47.9528 23.8094C48.0086 23.3993 48.0365 23.0452 48.0365 22.7469C48.0365 22.4859 48.0086 22.2902 47.9528 22.1597C47.9062 22.0199 47.7992 21.95 47.6317 21.95C47.3805 21.95 47.1618 22.0852 46.9757 22.3554C46.7989 22.6257 46.6547 22.9473 46.543 23.3201C46.4314 23.6929 46.3476 24.0751 46.2918 24.4665C46.2453 24.858 46.222 25.1749 46.222 25.4172C46.222 26.023 46.3849 26.3259 46.7105 26.3259Z" fill="url(#paint6_linear_15_228)"/>
<path d="M51.4933 21.1531H54.4523L54.9408 25.2634L56.6297 21.1531H59.2956L59.7702 25.2634L61.459 21.1531H62.9385L60.161 27.1648H57.2438L56.7274 24.117L55.3177 27.1648H52.4005L51.4933 21.1531Z" fill="url(#paint7_linear_15_228)"/>
<path d="M73.1619 26.4098C72.9293 26.5217 72.6874 26.6335 72.4361 26.7453C72.1942 26.8479 71.9336 26.9411 71.6545 27.0249C71.3753 27.0995 71.0683 27.1601 70.7333 27.2067C70.4076 27.2533 70.0494 27.2766 69.6586 27.2766C68.4117 27.2766 67.4486 26.997 66.7693 26.4378C66.0994 25.8785 65.7644 24.9465 65.7644 23.6417C65.7644 22.8867 65.8807 22.1784 66.1133 21.5166C66.346 20.8455 66.6902 20.263 67.1462 19.769C67.6021 19.2657 68.1651 18.8696 68.8351 18.5807C69.505 18.2918 70.2727 18.1473 71.1381 18.1473C71.5475 18.1473 71.9197 18.1753 72.2547 18.2312C72.599 18.2871 72.906 18.3617 73.1759 18.4549C73.455 18.5388 73.7016 18.632 73.9156 18.7345C74.139 18.837 74.339 18.9349 74.5158 19.0281L74.0133 21.6285H71.501C71.5103 21.5353 71.5196 21.4141 71.5289 21.265C71.5475 21.1158 71.5614 20.9667 71.5707 20.8176C71.5801 20.6591 71.5894 20.5054 71.5987 20.3562C71.608 20.2071 71.6126 20.0813 71.6126 19.9788C71.6126 19.9042 71.608 19.8203 71.5987 19.7271C71.5894 19.6246 71.5661 19.5267 71.5289 19.4335C71.4917 19.3403 71.4312 19.2657 71.3474 19.2098C71.273 19.1446 71.1706 19.112 71.0404 19.112C70.7984 19.112 70.5751 19.2145 70.3704 19.4195C70.175 19.6153 69.9982 19.8809 69.84 20.2164C69.6818 20.5426 69.5423 20.9154 69.4213 21.3349C69.3003 21.7543 69.198 22.183 69.1142 22.6211C69.0398 23.0498 68.9793 23.4739 68.9328 23.8933C68.8955 24.3127 68.8769 24.6809 68.8769 24.9978C68.8769 25.091 68.8816 25.2075 68.8909 25.3473C68.9002 25.4871 68.9281 25.6222 68.9746 25.7527C69.0212 25.8832 69.091 25.995 69.184 26.0883C69.2864 26.1815 69.4213 26.2281 69.5888 26.2281C69.8772 26.2281 70.1564 26.051 70.4262 25.6968C70.6961 25.3333 70.9333 24.6902 71.1381 23.7675H73.7202L73.1619 26.4098Z" fill="url(#paint8_linear_15_228)"/>
<path d="M75.2091 21.6704C75.6837 21.4374 76.1675 21.2696 76.6607 21.1671C77.1632 21.0553 77.7215 20.9993 78.3356 20.9993C78.9311 20.9993 79.4243 21.0459 79.8151 21.1391C80.2059 21.2323 80.5176 21.3675 80.7503 21.5446C80.9829 21.7217 81.1457 21.9314 81.2388 22.1737C81.3318 22.416 81.3784 22.691 81.3784 22.9986C81.3784 23.1756 81.3644 23.3667 81.3365 23.5718C81.3179 23.7768 81.2946 23.9492 81.2667 24.089L80.6107 27.1648H78.3635L78.1123 26.27H78.0285C77.7308 26.5962 77.3818 26.8479 76.9817 27.0249C76.5909 27.1927 76.2001 27.2766 75.8093 27.2766C75.586 27.2766 75.3673 27.244 75.1533 27.1787C74.9393 27.1135 74.7485 27.0156 74.581 26.8851C74.4135 26.7453 74.2786 26.5729 74.1762 26.3679C74.0739 26.1535 74.0227 25.8972 74.0227 25.5989C74.0227 25.1143 74.153 24.7321 74.4135 24.4525C74.6834 24.1636 75.0323 23.9492 75.4603 23.8094C75.8977 23.6603 76.3862 23.5671 76.9259 23.5298C77.4749 23.4925 78.0239 23.4739 78.5729 23.4739C78.5915 23.3807 78.6148 23.2502 78.6427 23.0824C78.6706 22.9053 78.6845 22.7516 78.6845 22.6211C78.6845 22.4533 78.638 22.2995 78.545 22.1597C78.4612 22.0106 78.2798 21.936 78.0006 21.936C77.6749 21.936 77.433 22.0339 77.2748 22.2296C77.1259 22.416 77.0283 22.6444 76.9817 22.9147H74.9439L75.2091 21.6704ZM78.4193 24.131H78.1681C77.8983 24.131 77.6656 24.1683 77.4702 24.2428C77.2841 24.3081 77.1306 24.3966 77.0096 24.5084C76.898 24.6203 76.8142 24.7461 76.7584 24.8859C76.7026 25.0257 76.6747 25.1655 76.6747 25.3053C76.6747 25.529 76.7305 25.6968 76.8421 25.8086C76.9631 25.9205 77.1027 25.9764 77.2609 25.9764C77.4563 25.9764 77.647 25.9065 77.8331 25.7667C78.0285 25.6269 78.1495 25.4405 78.196 25.2075L78.4193 24.131Z" fill="url(#paint9_linear_15_228)"/>
<path d="M83.0359 21.1531H85.311L85.5204 22.2017H85.6181C85.8321 21.8661 86.1066 21.5819 86.4416 21.3488C86.7766 21.1158 87.2186 20.9993 87.7676 20.9993C87.8048 20.9993 87.8606 21.004 87.935 21.0133C88.0188 21.0133 88.1072 21.0273 88.2002 21.0553C88.3026 21.0739 88.405 21.1065 88.5073 21.1531C88.619 21.1904 88.726 21.2463 88.8283 21.3209L88.2142 24.2009H86.6928C86.6742 23.623 86.623 23.2222 86.5393 22.9986C86.4555 22.7655 86.3206 22.649 86.1345 22.649C86.0415 22.649 85.9391 22.6723 85.8275 22.7189C85.7251 22.7562 85.6181 22.8448 85.5064 22.9846L84.6131 27.1648H81.7658L83.0359 21.1531Z" fill="url(#paint10_linear_15_228)"/>
<path d="M92.9374 22.9147C92.9467 22.8681 92.956 22.8215 92.9653 22.7749C92.9747 22.7283 92.9793 22.677 92.9793 22.6211C92.9793 22.4533 92.9467 22.2995 92.8816 22.1597C92.8258 22.0106 92.7094 21.936 92.5327 21.936C92.3745 21.936 92.2163 22.0059 92.0581 22.1457C91.8999 22.2762 91.8208 22.4533 91.8208 22.677C91.8208 22.8261 91.858 22.9473 91.9325 23.0405C92.0162 23.1244 92.1232 23.1943 92.2535 23.2502C92.3838 23.3061 92.528 23.3527 92.6862 23.39C92.8537 23.4273 93.0165 23.4646 93.1747 23.5019C93.398 23.5578 93.6074 23.6277 93.8028 23.7116C94.0075 23.7861 94.189 23.8886 94.3471 24.0191C94.5053 24.1496 94.631 24.3127 94.724 24.5084C94.8171 24.6949 94.8636 24.9279 94.8636 25.2075C94.8636 25.5989 94.7705 25.9298 94.5844 26.2001C94.4076 26.4611 94.1564 26.6754 93.8307 26.8432C93.5143 27.0016 93.1375 27.1135 92.7001 27.1787C92.2721 27.244 91.8115 27.2766 91.3183 27.2766C90.5646 27.2766 89.9412 27.2207 89.448 27.1088C88.9549 26.997 88.6106 26.8898 88.4152 26.7873L88.7083 25.3892H90.5925C90.5832 25.4358 90.5786 25.4824 90.5786 25.529C90.5786 25.5663 90.5786 25.6083 90.5786 25.6549C90.5786 25.8692 90.6251 26.0417 90.7182 26.1721C90.8205 26.2933 90.9927 26.3539 91.2346 26.3539C91.5045 26.3539 91.6952 26.2793 91.8069 26.1302C91.9278 25.9717 91.9883 25.8273 91.9883 25.6968C91.9883 25.5663 91.9371 25.4545 91.8348 25.3613C91.7417 25.2587 91.6208 25.1749 91.4719 25.1096C91.323 25.0351 91.1555 24.9745 90.9694 24.9279C90.7926 24.8719 90.6205 24.8207 90.453 24.7741C90.332 24.7461 90.1924 24.6995 90.0343 24.6343C89.8854 24.569 89.7411 24.4758 89.6016 24.3547C89.462 24.2335 89.3457 24.0797 89.2526 23.8933C89.1596 23.6976 89.1131 23.4552 89.1131 23.1663C89.1131 22.7562 89.2107 22.416 89.4062 22.1457C89.6109 21.8661 89.8714 21.6424 90.1878 21.4747C90.5135 21.3069 90.8764 21.1857 91.2765 21.1112C91.6859 21.0366 92.0953 20.9993 92.5047 20.9993C93.0165 20.9993 93.5004 21.0459 93.9563 21.1391C94.4123 21.2323 94.7845 21.3535 95.0729 21.5026L94.7519 22.9147H92.9374Z" fill="url(#paint11_linear_15_228)"/>
<path d="M99.5269 21.5319C99.1038 23.1463 97.5834 25.3368 97.5834 25.3368C97.5834 25.3368 98.1862 21.6697 97.5834 19.4526C97.3452 18.5764 97.2482 18.0394 96.7442 17.2847C96.2081 16.4819 95.7011 16.1877 94.9333 15.6035C93.4467 14.4723 92.4086 14.1039 90.6488 13.4799C88.9961 12.8938 86.276 12.4623 86.276 12.4623C86.276 12.4623 81.4226 11.5791 78.2813 11.2677C75.1191 10.9543 71.6117 10.5599 70.1541 10.8696C68.6965 11.1792 67.566 11.8868 65.8255 12.1968C65.1746 12.3128 64.147 12.418 64.147 12.418L56.6382 12.4623L46.6559 12.2411L36.9386 11.6217L29.0322 11.1793L19.5799 10.1617L7.69828 8.70169C7.69828 8.70169 11.9258 6.39607 14.7654 5.20656C18.0717 3.82159 20.0021 3.20408 23.4668 2.28657C26.9336 1.36852 28.9176 0.94931 32.4774 0.51688C34.8638 0.226993 36.2143 0.14861 38.617 0.0744579C41.4795 -0.0138844 43.0994 -0.0766095 45.9492 0.207185C48.8815 0.499199 50.5318 0.783342 53.3696 1.57869C55.7922 2.25767 57.1441 2.71928 59.4209 3.79081C62.026 5.01684 65.5605 7.2417 65.7371 7.59564C65.9138 7.94958 65.8255 8.25927 65.8255 8.25927C65.8255 8.25927 65.6488 8.52472 65.3396 8.61321C65.0304 8.70169 63.3962 8.79018 62.2477 8.61321C61.0993 8.43624 56.7707 5.87019 56.7707 5.87019C56.7707 5.87019 53.8053 4.28085 51.7354 3.79081C50.5317 3.50586 49.8292 3.47936 48.5993 3.34838C44.7743 2.94103 42.5759 2.95374 38.7495 3.34838C35.4819 3.68539 33.6705 4.11933 30.4898 4.9411C28.3076 5.50489 24.9686 6.62231 24.9686 6.62231C24.9686 6.62231 28.988 8.65745 31.1965 8.9229C33.405 9.18836 41.3213 8.9346 47.8043 9.14412C54.226 9.35165 63.1311 10.1174 64.2354 9.98472C65.3396 9.85199 65.2132 9.86588 65.8255 9.71927C67.1277 9.40745 67.9456 8.70169 69.0057 8.43624C70.0658 8.17079 74.6777 8.27908 78.2813 8.65745C81.4346 8.98854 83.2185 9.23265 86.276 10.0732C89.7789 11.0362 94.9333 13.4799 94.9333 13.4799C94.9333 13.4799 98.9149 15.034 99.7036 17.2847C100.24 18.815 99.9613 19.8763 99.5558 21.4216L99.5269 21.5319Z" fill="url(#paint12_linear_15_228)"/>
<path d="M94.6682 17.6387C95.0319 18.255 95.2866 19.3641 95.2866 19.3641L94.2265 18.789C94.2265 18.789 92.407 17.7636 91.1788 17.2405C88.2529 15.9942 86.3984 15.8761 83.2725 15.2938C81.1644 14.9012 79.9806 14.6168 77.8396 14.4975C75.3566 14.3591 72.3626 14.4975 71.4792 14.8072C70.5958 15.1168 70.4633 15.5151 68.4315 15.8247C66.3997 16.1344 47.3184 15.8247 47.3184 15.8247H24.2177C24.2177 15.8247 20.0216 16.1787 18.5198 15.8247C17.0181 15.4708 16.7244 15.0974 15.5163 14.8514C13.3695 14.4143 12.0918 14.6943 9.90676 14.8514C8.25929 14.9699 6.99157 14.9841 5.71065 15.3823C4.42973 15.7805 3.09352 16.7069 1.82372 18.0369C1.03922 18.8585 0.10111 20.3817 0.10111 20.3817C0.10111 20.3817 -0.126387 18.4992 0.10111 17.329C0.2983 16.3147 0.449499 15.7066 1.02867 14.8514C1.9957 13.4236 3.1525 13.1345 4.73892 12.4623C6.74243 11.6134 8.04263 11.54 10.2159 11.4448C12.591 11.3407 13.9075 11.8192 16.2672 12.1084C19.2576 12.4749 20.9139 12.8403 23.9085 13.1702C32.8443 14.1545 46.9209 13.7454 46.9209 13.7454C46.9209 13.7454 67.3273 14.0551 68.4315 13.7454C69.5357 13.4357 70.3308 12.6393 71.4792 12.3739C72.6276 12.1084 75.5791 12.1682 78.193 12.3739C80.1896 12.5309 81.3057 12.7033 83.2725 13.0817C86.4207 13.6875 91.1788 15.2938 91.1788 15.2938C91.1788 15.2938 93.8334 16.2236 94.6682 17.6387Z" fill="url(#paint13_linear_15_228)"/>
<path d="M50 34.2775C51.5758 34.2775 53.0036 34.9169 54.0359 35.9524C55.0683 36.9865 55.7081 38.4165 55.7081 39.995C55.7081 41.5734 55.0697 43.0035 54.0359 44.0376C53.0036 45.0716 51.5758 45.7125 50 45.7125C48.4242 45.7125 46.9964 45.073 45.9641 44.0376C44.9317 43.0035 44.2919 41.5734 44.2919 39.995C44.2919 38.4165 44.9303 36.9865 45.9641 35.9524C46.9964 34.9184 48.4242 34.2775 50 34.2775ZM50 31.1465C52.44 31.1465 54.6484 32.1374 56.2458 33.7389C57.8447 35.3403 58.8339 37.5524 58.8339 39.995C58.8339 42.439 57.8447 44.6511 56.2458 46.2511C54.647 47.8526 52.4385 48.8434 50 48.8434C47.56 48.8434 45.3515 47.8526 43.7541 46.2511C42.1553 44.6511 41.1661 42.439 41.1661 39.995C41.1661 37.551 42.1553 35.3389 43.7541 33.7389C45.3515 32.1374 47.56 31.1465 50 31.1465ZM54.6053 35.3821C53.4263 34.2011 51.7987 33.471 50 33.471C48.2013 33.471 46.5737 34.2011 45.3947 35.3821C44.2157 36.563 43.4867 38.1933 43.4867 39.995C43.4867 41.7966 44.2157 43.4269 45.3947 44.6079C46.5737 45.7888 48.2013 46.519 50 46.519C51.7987 46.519 53.4263 45.7888 54.6053 44.6079C55.7843 43.4269 56.5133 41.7966 56.5133 39.995C56.5133 38.1933 55.7843 36.563 54.6053 35.3821ZM50.5766 39.3224C50.4299 39.1755 50.2272 39.0848 50 39.0848C49.7743 39.0848 49.5701 39.1755 49.4234 39.3224L49.422 39.3239C49.2753 39.4708 49.1848 39.6738 49.1848 39.9014C49.1848 40.1275 49.2753 40.332 49.422 40.4789L49.4234 40.4803C49.5701 40.6272 49.7728 40.718 50 40.718C50.2257 40.718 50.4299 40.6272 50.5766 40.4803L50.578 40.4789C50.7246 40.332 50.8152 40.1275 50.8152 39.9014C50.8138 39.6738 50.7232 39.4708 50.5766 39.3224ZM50.5205 38.4612C50.7318 38.539 50.9231 38.6614 51.0798 38.8184C51.133 38.8716 51.1833 38.9293 51.2279 38.9912L51.2423 38.9869L54.2645 38.176C54.0302 37.6245 53.6923 37.1276 53.2753 36.7114C52.5521 35.987 51.5902 35.5002 50.519 35.3807V38.4223C50.5219 38.4353 50.5219 38.4482 50.5205 38.4612ZM51.5241 40.0224C51.5039 40.2715 51.4249 40.5048 51.2983 40.7079C51.3055 40.7165 51.3113 40.7266 51.317 40.7367L53.0525 43.4917C53.1301 43.424 53.2049 43.3535 53.2782 43.28C54.1165 42.4404 54.6355 41.2782 54.6355 39.9964C54.6355 39.7271 54.6125 39.4636 54.5679 39.2058L51.5241 40.0224ZM50.45 41.3646C50.3077 41.4092 50.1567 41.4323 50 41.4323C49.8591 41.4323 49.7225 41.4136 49.5917 41.3776L47.8979 44.1355C48.5291 44.4581 49.2437 44.6396 50 44.6396C50.785 44.6396 51.5241 44.4437 52.1725 44.0995L50.45 41.3646ZM48.7247 40.7439C48.5924 40.5451 48.5061 40.3133 48.4802 40.0656H48.4788L45.4464 39.115C45.3918 39.4002 45.363 39.694 45.363 39.995C45.363 41.2767 45.8821 42.439 46.7203 43.2786C46.8109 43.3693 46.9058 43.4572 47.005 43.5407L48.7016 40.777C48.7103 40.7669 48.7175 40.7554 48.7247 40.7439ZM48.7462 39.0272C48.798 38.9537 48.8555 38.8832 48.9202 38.8198C49.0712 38.67 49.2523 38.5505 49.4536 38.4727C49.4522 38.4569 49.4507 38.4396 49.4507 38.4238V35.385C48.3896 35.5103 47.4378 35.9942 46.7218 36.7128C46.3264 37.1089 46.0014 37.5769 45.7685 38.0954L48.7462 39.0272Z" fill="url(#paint14_linear_15_228)"/>
<path d="M38.4885 40.1748H34.5201C34.4588 40.1748 34.4024 40.14 34.3747 40.0845L33.7224 38.7775C33.691 38.7161 33.7038 38.6442 33.7474 38.5955H32.9435C32.8868 38.5955 32.834 38.5659 32.8043 38.5172L31.9344 37.0873C31.8962 37.0242 31.9077 36.9471 31.9547 36.8948H30.8235C30.7638 36.8948 30.709 36.8624 30.6807 36.8103L29.7022 35.0262C29.6745 34.9755 29.6752 34.9141 29.7048 34.8645C29.7342 34.8148 29.7874 34.7841 29.8451 34.7841H39.1259C39.2242 34.7684 39.6197 34.7318 40.146 35.0605C40.9924 35.5887 40.6152 37.3944 41.5287 41.4443C41.5491 41.5326 41.4937 41.6191 41.4058 41.6395C41.3937 41.6424 41.3816 41.6437 41.3694 41.6437C41.295 41.6437 41.2274 41.592 41.2112 41.5158C39.7556 35.0599 39.1975 35.1004 39.1769 35.1058C39.166 35.1083 39.1526 35.1098 39.1414 35.1098H30.1213L30.9206 36.5672H38.3254C38.4154 36.5672 38.4885 36.6404 38.4885 36.7305C38.4885 36.8206 38.4154 36.8939 38.3254 36.8939H32.1928C32.1996 36.9014 32.208 36.9072 32.2137 36.9164L33.0359 38.268H38.4888C38.5787 38.268 38.6518 38.3412 38.6518 38.4313C38.6518 38.5215 38.5788 38.5947 38.4888 38.5947H33.9863C33.9963 38.6059 34.0072 38.6162 34.0143 38.6302L34.6216 39.8469H38.4885C38.565 39.8469 40.3776 39.8644 41.5006 41.3833C41.5541 41.4554 41.5392 41.5571 41.4666 41.6108C41.437 41.6325 41.4035 41.6437 41.3694 41.6437C41.3201 41.6437 41.2704 41.621 41.2388 41.5779C40.2122 40.191 38.5058 40.1748 38.4885 40.1748Z" fill="url(#paint15_linear_15_228)"/>
<path d="M61.525 40.1748H65.4934C65.5547 40.1748 65.6111 40.14 65.6387 40.0845L66.291 38.7775C66.3225 38.7161 66.3097 38.6442 66.266 38.5955H67.0699C67.1267 38.5955 67.1795 38.5659 67.2092 38.5172L68.079 37.0873C68.1173 37.0242 68.1058 36.9471 68.0588 36.8948H69.19C69.2497 36.8948 69.3045 36.8624 69.3328 36.8103L70.3113 35.0262C70.339 34.9755 70.3383 34.9141 70.3087 34.8645C70.2793 34.8148 70.2261 34.7841 70.1684 34.7841H60.8876C60.7892 34.7684 60.3938 34.7318 59.8674 35.0605C59.0211 35.5887 59.3983 37.3944 58.4848 41.4443C58.4644 41.5326 58.5198 41.6191 58.6077 41.6395C58.6198 41.6424 58.6319 41.6437 58.6441 41.6437C58.7185 41.6437 58.7861 41.592 58.8023 41.5158C60.2579 35.0599 60.8159 35.1004 60.8365 35.1058C60.8475 35.1083 60.8609 35.1098 60.8721 35.1098H69.8922L69.0928 36.5672H61.6881C61.5981 36.5672 61.525 36.6404 61.525 36.7305C61.525 36.8206 61.5981 36.8939 61.6881 36.8939H67.8207C67.8139 36.9014 67.8054 36.9072 67.7998 36.9164L66.9776 38.268H61.5247C61.4348 38.268 61.3616 38.3412 61.3616 38.4313C61.3616 38.5215 61.4347 38.5947 61.5247 38.5947H66.0272C66.0171 38.6059 66.0063 38.6162 65.9991 38.6302L65.3919 39.8469H61.525C61.4484 39.8469 59.6359 39.8644 58.5129 41.3833C58.4594 41.4554 58.4743 41.5571 58.5469 41.6108C58.5765 41.6325 58.61 41.6437 58.6441 41.6437C58.6934 41.6437 58.7431 41.621 58.7746 41.5779C59.8013 40.191 61.5077 40.1748 61.525 40.1748Z" fill="url(#paint16_linear_15_228)"/>
<defs>
<linearGradient id="paint0_linear_15_228" x1="50" y1="0" x2="50" y2="58.1395" gradientUnits="userSpaceOnUse">
<stop stop-color="#0D92F4"/>
<stop offset="1" stop-color="#C62E2E"/>
</linearGradient>
<linearGradient id="paint1_linear_15_228" x1="50" y1="0" x2="50" y2="58.1395" gradientUnits="userSpaceOnUse">
<stop stop-color="#0D92F4"/>
<stop offset="1" stop-color="#C62E2E"/>
</linearGradient>
<linearGradient id="paint2_linear_15_228" x1="50" y1="0" x2="50" y2="58.1395" gradientUnits="userSpaceOnUse">
<stop stop-color="#0D92F4"/>
<stop offset="1" stop-color="#C62E2E"/>
</linearGradient>
<linearGradient id="paint3_linear_15_228" x1="50" y1="0" x2="50" y2="58.1395" gradientUnits="userSpaceOnUse">
<stop stop-color="#0D92F4"/>
<stop offset="1" stop-color="#C62E2E"/>
</linearGradient>
<linearGradient id="paint4_linear_15_228" x1="50" y1="0" x2="50" y2="58.1395" gradientUnits="userSpaceOnUse">
<stop stop-color="#0D92F4"/>
<stop offset="1" stop-color="#C62E2E"/>
</linearGradient>
<linearGradient id="paint5_linear_15_228" x1="50" y1="0" x2="50" y2="58.1395" gradientUnits="userSpaceOnUse">
<stop stop-color="#0D92F4"/>
<stop offset="1" stop-color="#C62E2E"/>
</linearGradient>
<linearGradient id="paint6_linear_15_228" x1="50" y1="0" x2="50" y2="58.1395" gradientUnits="userSpaceOnUse">
<stop stop-color="#0D92F4"/>
<stop offset="1" stop-color="#C62E2E"/>
</linearGradient>
<linearGradient id="paint7_linear_15_228" x1="50" y1="0" x2="50" y2="58.1395" gradientUnits="userSpaceOnUse">
<stop stop-color="#0D92F4"/>
<stop offset="1" stop-color="#C62E2E"/>
</linearGradient>
<linearGradient id="paint8_linear_15_228" x1="50" y1="0" x2="50" y2="58.1395" gradientUnits="userSpaceOnUse">
<stop stop-color="#0D92F4"/>
<stop offset="1" stop-color="#C62E2E"/>
</linearGradient>
<linearGradient id="paint9_linear_15_228" x1="50" y1="0" x2="50" y2="58.1395" gradientUnits="userSpaceOnUse">
<stop stop-color="#0D92F4"/>
<stop offset="1" stop-color="#C62E2E"/>
</linearGradient>
<linearGradient id="paint10_linear_15_228" x1="50" y1="0" x2="50" y2="58.1395" gradientUnits="userSpaceOnUse">
<stop stop-color="#0D92F4"/>
<stop offset="1" stop-color="#C62E2E"/>
</linearGradient>
<linearGradient id="paint11_linear_15_228" x1="50" y1="0" x2="50" y2="58.1395" gradientUnits="userSpaceOnUse">
<stop stop-color="#0D92F4"/>
<stop offset="1" stop-color="#C62E2E"/>
</linearGradient>
<linearGradient id="paint12_linear_15_228" x1="50" y1="0" x2="50" y2="58.1395" gradientUnits="userSpaceOnUse">
<stop stop-color="#0D92F4"/>
<stop offset="1" stop-color="#C62E2E"/>
</linearGradient>
<linearGradient id="paint13_linear_15_228" x1="50" y1="0" x2="50" y2="58.1395" gradientUnits="userSpaceOnUse">
<stop stop-color="#0D92F4"/>
<stop offset="1" stop-color="#C62E2E"/>
</linearGradient>
<linearGradient id="paint14_linear_15_228" x1="50" y1="0" x2="50" y2="58.1395" gradientUnits="userSpaceOnUse">
<stop stop-color="#0D92F4"/>
<stop offset="1" stop-color="#C62E2E"/>
</linearGradient>
<linearGradient id="paint15_linear_15_228" x1="50" y1="0" x2="50" y2="58.1395" gradientUnits="userSpaceOnUse">
<stop stop-color="#0D92F4"/>
<stop offset="1" stop-color="#C62E2E"/>
</linearGradient>
<linearGradient id="paint16_linear_15_228" x1="50" y1="0" x2="50" y2="58.1395" gradientUnits="userSpaceOnUse">
<stop stop-color="#0D92F4"/>
<stop offset="1" stop-color="#C62E2E"/>
</linearGradient>
</defs>
</svg>
