<svg width="256" height="171" viewBox="0 0 256 171" fill="none" xmlns="http://www.w3.org/2000/svg">
<path d="M14.2222 170.667C10.1926 170.667 6.81481 169.304 4.08889 166.578C1.36296 163.852 0 160.474 0 156.444C0 152.415 1.36296 149.037 4.08889 146.311C6.81481 143.585 10.1926 142.222 14.2222 142.222H241.778C245.807 142.222 249.185 143.585 251.911 146.311C254.637 149.037 256 152.415 256 156.444C256 160.474 254.637 163.852 251.911 166.578C249.185 169.304 245.807 170.667 241.778 170.667H14.2222ZM14.2222 99.5556C10.1926 99.5556 6.81481 98.1926 4.08889 95.4667C1.36296 92.7407 0 89.363 0 85.3333C0 81.3037 1.36296 77.9259 4.08889 75.2C6.81481 72.4741 10.1926 71.1111 14.2222 71.1111H241.778C245.807 71.1111 249.185 72.4741 251.911 75.2C254.637 77.9259 256 81.3037 256 85.3333C256 89.363 254.637 92.7407 251.911 95.4667C249.185 98.1926 245.807 99.5556 241.778 99.5556H14.2222ZM14.2222 28.4444C10.1926 28.4444 6.81481 27.0815 4.08889 24.3556C1.36296 21.6296 0 18.2519 0 14.2222C0 10.1926 1.36296 6.81481 4.08889 4.08889C6.81481 1.36296 10.1926 0 14.2222 0H241.778C245.807 0 249.185 1.36296 251.911 4.08889C254.637 6.81481 256 10.1926 256 14.2222C256 18.2519 254.637 21.6296 251.911 24.3556C249.185 27.0815 245.807 28.4444 241.778 28.4444H14.2222Z" fill="white"/>
</svg>
