<svg width="176" height="176" viewBox="0 0 176 176" fill="none" xmlns="http://www.w3.org/2000/svg">
<path d="M88 106.738L22.4183 172.319C19.9645 174.773 16.8416 176 13.0494 176C9.25729 176 6.13435 174.773 3.68061 172.319C1.22687 169.866 0 166.743 0 162.951C0 159.158 1.22687 156.035 3.68061 153.582L69.2624 88L3.68061 22.4183C1.22687 19.9645 0 16.8416 0 13.0494C0 9.25729 1.22687 6.13435 3.68061 3.68061C6.13435 1.22687 9.25729 0 13.0494 0C16.8416 0 19.9645 1.22687 22.4183 3.68061L88 69.2624L153.582 3.68061C156.035 1.22687 159.158 0 162.951 0C166.743 0 169.866 1.22687 172.319 3.68061C174.773 6.13435 176 9.25729 176 13.0494C176 16.8416 174.773 19.9645 172.319 22.4183L106.738 88L172.319 153.582C174.773 156.035 176 159.158 176 162.951C176 166.743 174.773 169.866 172.319 172.319C169.866 174.773 166.743 176 162.951 176C159.158 176 156.035 174.773 153.582 172.319L88 106.738Z" fill="#0D92F4"/>
</svg>
